<svg xmlns="http://www.w3.org/2000/svg" width="707" height="353" viewBox="0 0 707 353" version="1.1"><path d="M 169.200 148.200 C 168.490 148.910, 168 152.324, 168 156.559 C 168 160.496, 166.652 174.243, 165.004 187.109 C 163.356 199.974, 162.006 211.287, 162.004 212.250 C 162 213.816, 163.214 214, 173.532 214 C 186.255 214, 189.829 213.027, 194.197 208.373 C 197.992 204.330, 199.732 199.597, 200.988 189.902 C 204.777 160.656, 204.696 158.295, 199.692 152.506 C 196.649 148.986, 196.031 148.734, 188.486 147.944 C 176.992 146.741, 170.574 146.826, 169.200 148.200 M 223.656 147.791 C 221.842 150.915, 201.939 212.399, 202.375 213.534 C 203.093 215.406, 213.277 215.583, 214.780 213.750 C 215.343 213.063, 216.316 210.588, 216.941 208.250 L 218.077 204 223.432 204 C 229.336 204, 230 204.665, 230 210.582 C 230 212.462, 230.338 214.050, 230.750 214.110 C 235.785 214.851, 243.285 214.422, 243.688 213.370 C 243.955 212.676, 243.471 205.446, 242.613 197.304 C 241.756 189.162, 240.497 175.173, 239.816 166.217 C 239.134 157.261, 238.335 149.567, 238.039 149.119 C 237.344 148.069, 224.199 146.855, 223.656 147.791 M 284.542 147.892 L 280.583 148.500 277.151 161 C 275.262 167.875, 273.004 175.975, 272.131 179 L 270.544 184.500 269.889 178 C 269.529 174.425, 269.181 166.924, 269.117 161.332 C 269.053 155.739, 268.727 150.452, 268.393 149.582 C 267.921 148.351, 266.256 148, 260.893 148 C 254.403 148, 254.002 148.132, 254.028 150.250 C 254.055 152.384, 255.595 171.860, 257.999 200.461 C 258.598 207.589, 259.184 213.517, 259.302 213.635 C 259.767 214.100, 272.914 214.418, 273.338 213.974 C 273.587 213.714, 278.552 199.132, 284.370 181.572 C 295.348 148.440, 295.645 146.807, 290.628 147.142 C 289.457 147.220, 286.719 147.557, 284.542 147.892 M 299.143 148.328 C 298.560 149.030, 298.309 150.481, 298.585 151.552 C 299.080 153.473, 296.637 176.808, 293.429 200.809 C 292.524 207.578, 292.058 213.391, 292.393 213.726 C 292.728 214.062, 295.396 214.534, 298.321 214.777 C 305.928 215.408, 306.388 214.665, 307.878 199.366 C 309.326 184.494, 310.267 176.898, 312.605 161.194 C 313.587 154.597, 313.916 149.548, 313.394 149.073 C 311.713 147.540, 300.292 146.943, 299.143 148.328 M 320.250 147.695 C 319.411 148.011, 318.998 150.523, 318.994 155.333 C 318.991 159.275, 318.320 166.933, 317.503 172.351 C 316.687 177.768, 315.361 188.465, 314.556 196.120 C 313.752 203.775, 312.809 210.500, 312.461 211.063 C 312.113 211.627, 312.372 212.743, 313.036 213.544 C 314.558 215.377, 324.327 215.536, 325.754 213.750 C 326.304 213.063, 327.049 209.800, 327.410 206.500 C 328.881 193.046, 330.363 182.030, 330.660 182.327 C 330.994 182.661, 335.413 203.905, 336.456 210.194 C 337.162 214.446, 337.999 214.816, 346.500 214.631 L 352.500 214.500 353.084 208 C 353.405 204.425, 354.897 191.043, 356.398 178.262 C 357.900 165.481, 358.987 153.556, 358.814 151.762 C 358.515 148.652, 358.268 148.472, 353.500 147.892 C 346.446 147.034, 345 148.037, 345.001 153.785 C 345.003 159.777, 342.946 175.244, 342.007 176.303 C 341.288 177.112, 338.627 164.942, 337.407 155.267 C 337.044 152.390, 336.241 149.639, 335.623 149.154 C 334.335 148.144, 322.128 146.985, 320.250 147.695 M 411.476 148.719 C 414.763 148.936, 417.835 149.650, 418.302 150.307 C 418.898 151.142, 419.031 151.051, 418.747 150 C 418.443 148.877, 416.728 148.478, 411.921 148.412 L 405.500 148.324 411.476 148.719 M 468.653 148.750 C 468.397 149.162, 470.508 149.370, 473.344 149.211 C 481.868 148.734, 482.907 148.281, 475.809 148.136 C 472.129 148.061, 468.909 148.338, 468.653 148.750 M 494.654 148.750 C 494.400 149.162, 496.285 149.368, 498.845 149.208 C 506.781 148.709, 507.772 148.278, 501.309 148.136 C 497.904 148.061, 494.909 148.338, 494.654 148.750 M 181.607 162.582 C 181.273 163.452, 180.996 166.039, 180.991 168.332 C 180.983 172.209, 178.735 190.538, 177.401 197.607 C 176.634 201.674, 179.290 202.915, 182.951 200.201 C 185.730 198.141, 185.777 197.944, 188.518 176.704 C 189.813 166.667, 189.909 163.595, 188.962 162.454 C 187.337 160.497, 182.374 160.583, 181.607 162.582 M 224.752 181.348 C 223.240 186.215, 222.254 190.602, 222.561 191.098 C 223.402 192.460, 227.994 192.179, 228.549 190.732 C 228.817 190.034, 228.690 185.647, 228.268 180.982 L 227.500 172.500 224.752 181.348" stroke="none" fill="#fafafa" fill-rule="evenodd"/><path d="M 434.384 149.913 C 429.862 151.967, 425.912 156.604, 424.113 161.971 C 421.970 168.367, 418.870 199.803, 419.977 203.915 C 421.810 210.723, 427.085 214, 436.212 214 C 442.951 214, 444.873 213.159, 450.769 207.634 C 454.764 203.890, 455.330 201.821, 458.049 181.027 C 460.435 162.784, 460.265 158.585, 456.953 153.934 C 452.739 148.016, 442.556 146.202, 434.384 149.913 M 524.500 149.200 C 520.143 150.714, 514.448 156.563, 513.166 160.840 C 511.959 164.867, 508 194.573, 508 199.601 C 508 204.781, 509.942 208.688, 513.870 211.410 C 516.915 213.520, 518.763 214, 523.844 214 C 534.968 214, 542.161 208.238, 543.945 197.897 C 545.984 186.080, 546.287 179.796, 544.862 178.894 C 543.037 177.737, 529.268 177.757, 528.551 178.917 C 528.240 179.421, 527.702 181.896, 527.356 184.417 C 526.747 188.861, 526.808 189, 529.364 189 C 532.231 189, 532.631 190.593, 531.361 196.943 C 530.162 202.940, 522.754 204.850, 521.413 199.508 C 521.087 198.211, 521.518 192.279, 522.370 186.325 C 523.222 180.371, 524.210 172.785, 524.564 169.467 C 525.247 163.083, 526.355 160.806, 529.322 159.692 C 532.788 158.390, 535 160.666, 535 165.535 L 535 170 541.500 170 L 548 170 548 163.812 C 548 159.038, 547.486 156.870, 545.750 154.326 C 541.961 148.772, 532.382 146.462, 524.500 149.200 M 402.612 171.750 C 399.317 199.368, 398.759 201.771, 395.451 202.602 C 391.470 203.601, 390 201.518, 390 194.878 L 390 189 384.535 189 C 377.960 189, 377 190.208, 377 198.484 C 377 208.919, 381.998 213.990, 392.290 213.996 C 396.005 213.999, 399.409 213.321, 401.790 212.106 C 410.155 207.837, 411.803 203.704, 414.590 180.015 C 415.853 169.282, 417.199 157.912, 417.581 154.750 L 418.275 149 411.801 149 L 405.326 149 402.612 171.750 M 468.539 150.250 C 468.320 150.938, 467.170 159.600, 465.983 169.500 C 464.796 179.400, 463.209 192.450, 462.456 198.500 C 460.343 215.472, 459.929 214.147, 467.237 213.798 L 473.473 213.500 475.206 199.500 C 476.158 191.800, 477.320 183.925, 477.788 182 L 478.637 178.500 479.388 183.500 C 480.506 190.955, 484.893 212.018, 485.548 213.078 C 485.862 213.585, 488.968 214, 492.451 214 C 498.261 214, 498.832 213.807, 499.372 211.653 C 499.696 210.362, 501.322 197.875, 502.986 183.903 C 504.649 169.931, 506.294 156.339, 506.641 153.699 L 507.271 148.898 500.894 149.199 L 494.518 149.500 493.782 154.500 C 493.378 157.250, 492.376 164.848, 491.556 171.384 C 490.737 177.920, 489.922 183.411, 489.747 183.586 C 489.572 183.762, 487.920 176.051, 486.076 166.453 L 482.724 149 475.831 149 C 471.195 149, 468.807 149.409, 468.539 150.250 M 439.695 160.111 C 438.702 160.689, 437.463 162.282, 436.942 163.652 C 435.553 167.305, 431.997 197.273, 432.654 199.786 C 433.650 203.595, 439.936 203.864, 441.899 200.182 C 442.392 199.257, 443.798 190.427, 445.023 180.561 L 447.251 162.622 445.015 160.811 C 442.444 158.729, 442.139 158.689, 439.695 160.111" stroke="none" fill="#fb3e47" fill-rule="evenodd"/></svg>